<svg xmlns="http://www.w3.org/2000/svg" width="276pt" height="188pt" viewBox="0.00 0.00 276.00 188.00">
<script href="/Users/gabriel.russo/universe/experimental/bin/dotty_srcs/svgpan.js" /><g id="viewport"><g id="graph0" class="graph" transform="scale(1 1) rotate(0) translate(4 184)">
<title>mygraph</title>
<polygon fill="white" stroke="transparent" points="-4,4 -4,-184 272,-184 272,4 -4,4" />

<g id="node1" class="node">
<title>//lib2:test</title>
<polygon fill="none" stroke="black" points="69,-180 0,-180 0,-144 69,-144 69,-180" />
<text text-anchor="middle" x="34.5" y="-158.3" font-family="Times,serif" font-size="14.00">//lib2:test</text>
</g>

<g id="node2" class="node">
<title>//lib2:lib</title>
<polygon fill="none" stroke="black" points="69,-108 4,-108 4,-72 69,-72 69,-108" />
<text text-anchor="middle" x="36.5" y="-86.3" font-family="Times,serif" font-size="14.00">//lib2:lib</text>
</g>

<g id="edge1" class="edge">
<title>//lib2:test-&gt;//lib2:lib</title>
<path fill="none" stroke="black" d="M34.99,-143.7C35.21,-135.98 35.48,-126.71 35.73,-118.11" />
<polygon fill="black" stroke="black" points="39.22,-118.2 36.01,-108.1 32.23,-118 39.22,-118.2" />
</g>

<g id="node3" class="node">
<title>//common:lib</title>
<polygon fill="none" stroke="black" points="166.5,-36 74.5,-36 74.5,0 166.5,0 166.5,-36" />
<text text-anchor="middle" x="120.5" y="-14.3" font-family="Times,serif" font-size="14.00">//common:lib</text>
</g>

<g id="edge2" class="edge">
<title>//lib2:lib-&gt;//common:lib</title>
<path fill="none" stroke="black" d="M57.26,-71.7C67.74,-62.97 80.61,-52.24 92,-42.75" />
<polygon fill="black" stroke="black" points="94.53,-45.19 99.97,-36.1 90.05,-39.82 94.53,-45.19" />
</g>

<g id="node4" class="node">
<title>//lib1:test</title>
<polygon fill="none" stroke="black" points="156,-180 87,-180 87,-144 156,-144 156,-180" />
<text text-anchor="middle" x="121.5" y="-158.3" font-family="Times,serif" font-size="14.00">//lib1:test</text>
</g>

<g id="node5" class="node">
<title>//lib1:lib</title>
<polygon fill="none" stroke="black" points="153,-108 88,-108 88,-72 153,-72 153,-108" />
<text text-anchor="middle" x="120.5" y="-86.3" font-family="Times,serif" font-size="14.00">//lib1:lib</text>
</g>

<g id="edge3" class="edge">
<title>//lib1:test-&gt;//lib1:lib</title>
<path fill="none" stroke="black" d="M121.25,-143.7C121.14,-135.98 121.01,-126.71 120.89,-118.11" />
<polygon fill="black" stroke="black" points="124.39,-118.05 120.74,-108.1 117.39,-118.15 124.39,-118.05" />
</g>

<g id="edge4" class="edge">
<title>//lib1:lib-&gt;//common:lib</title>
<path fill="none" stroke="black" d="M120.5,-71.7C120.5,-63.98 120.5,-54.71 120.5,-46.11" />
<polygon fill="black" stroke="black" points="124,-46.1 120.5,-36.1 117,-46.1 124,-46.1" />
</g>

<g id="node6" class="node">
<title>//common:test</title>
<polygon fill="none" stroke="black" points="268,-108 171,-108 171,-72 268,-72 268,-108" />
<text text-anchor="middle" x="219.5" y="-86.3" font-family="Times,serif" font-size="14.00">//common:test</text>
</g>

<g id="edge5" class="edge">
<title>//common:test-&gt;//common:lib</title>
<path fill="none" stroke="black" d="M195.28,-71.88C182.58,-62.89 166.84,-51.76 153.08,-42.03" />
<polygon fill="black" stroke="black" points="155,-39.11 144.81,-36.19 150.96,-44.82 155,-39.11" />
</g>
</g>
</g><style>svg { overflow: hidden; }</style></svg>